<?xml version="1.0" encoding="UTF-8"?>
<!DOCTYPE svg PUBLIC "-//W3C//DTD SVG 1.1//EN" "http://www.w3.org/Graphics/SVG/1.1/DTD/svg11.dtd">
<svg version="1.2" xmlns="http://www.w3.org/2000/svg" xmlns:xlink="http://www.w3.org/1999/xlink" x="0" y="0" width="937" height="631" viewBox="0 0 937 631">
<style type="text/css"><![CDATA[
text { font:12px Dialog; }
]]></style>
<rect x="-1440" y="-1285" width="3814" height="3202" style="fill:rgb(255,255,255);stroke:none" />
<clipPath id="clip1"><path d="M15,15 L922,15 L922,616 L15,616 Z M365,272 C360.5820313,272 357,275.5820313 357,280 L357,350 C357,354.4179688 360.5820313,358 365,358 L574,358 C578.4179688,358 582,354.4179688 582,350 L582,280 C582,275.5820313 578.4179688,272 574,272 Z M365,272 Z M365,272" /></clipPath>
<path d="M488.8164063,272 C511.078125,123.3320313 544.4726563,49 589,49" style="fill:none;stroke:rgb(85,142,213)" clip-path="url(#clip1)" />
<clipPath id="clip2"><path d="M15,15 L922,15 L922,616 L15,616 Z M365,272 C360.5820313,272 357,275.5820313 357,280 L357,350 C357,354.4179688 360.5820313,358 365,358 L574,358 C578.4179688,358 582,354.4179688 582,350 L582,280 C582,275.5820313 578.4179688,272 574,272 Z M365,272 Z M365,272" /></clipPath>
<path d="M509.3007813,272 C535.0117188,188.6679688 573.578125,147 625,147" style="fill:none;stroke:rgb(85,142,213)" clip-path="url(#clip2)" />
<clipPath id="clip3"><path d="M15,15 L922,15 L922,616 L15,616 Z M365,272 C360.5820313,272 357,275.5820313 357,280 L357,350 C357,354.4179688 360.5820313,358 365,358 L574,358 C578.4179688,358 582,354.4179688 582,350 L582,280 C582,275.5820313 578.4179688,272 574,272 Z M365,272 Z M365,272" /></clipPath>
<path d="M561.0742188,272 C579.0585938,246.6679688 606.03125,234 642,234" style="fill:none;stroke:rgb(85,142,213)" clip-path="url(#clip3)" />
<clipPath id="clip4"><path d="M15,15 L922,15 L922,616 L15,616 Z M365,272 C360.5820313,272 357,275.5820313 357,280 L357,350 C357,354.4179688 360.5820313,358 365,358 L574,358 C578.4179688,358 582,354.4179688 582,350 L582,280 C582,275.5820313 578.4179688,272 574,272 Z M365,272 Z M365,272" /></clipPath>
<path d="M582,318.8242188 C596.2226563,320.2734375 617.5546875,321 646,321" style="fill:none;stroke:rgb(85,142,213)" clip-path="url(#clip4)" />
<clipPath id="clip5"><path d="M15,15 L922,15 L922,616 L15,616 Z M365,272 C360.5820313,272 357,275.5820313 357,280 L357,350 C357,354.4179688 360.5820313,358 365,358 L574,358 C578.4179688,358 582,354.4179688 582,350 L582,280 C582,275.5820313 578.4179688,272 574,272 Z M365,272 Z M365,272" /></clipPath>
<path d="M548.796875,358 C569.2851563,391.3320313 600.0195313,408 641,408" style="fill:none;stroke:rgb(85,142,213)" clip-path="url(#clip5)" />
<clipPath id="clip6"><path d="M15,15 L922,15 L922,616 L15,616 Z M365,272 C360.5820313,272 357,275.5820313 357,280 L357,350 C357,354.4179688 360.5820313,358 365,358 L574,358 C578.4179688,358 582,354.4179688 582,350 L582,280 C582,275.5820313 578.4179688,272 574,272 Z M365,272 Z M365,272" /></clipPath>
<path d="M506.1679688,358 C532.1328125,449.3320313 571.0742188,495 623,495" style="fill:none;stroke:rgb(85,142,213)" clip-path="url(#clip6)" />
<clipPath id="clip7"><path d="M15,15 L922,15 L922,616 L15,616 Z M365,272 C360.5820313,272 357,275.5820313 357,280 L357,350 C357,354.4179688 360.5820313,358 365,358 L574,358 C578.4179688,358 582,354.4179688 582,350 L582,280 C582,275.5820313 578.4179688,272 574,272 Z M365,272 Z M365,272" /></clipPath>
<path d="M488.7460938,358 C511.0234375,507.3320313 544.4414063,582 589,582" style="fill:none;stroke:rgb(85,142,213)" clip-path="url(#clip7)" />
<clipPath id="clip8"><path d="M15,15 L922,15 L922,616 L15,616 Z M365,272 C360.5820313,272 357,275.5820313 357,280 L357,350 C357,354.4179688 360.5820313,358 365,358 L574,358 C578.4179688,358 582,354.4179688 582,350 L582,280 C582,275.5820313 578.4179688,272 574,272 Z M365,272 Z M365,272" /></clipPath>
<path d="M451.0820313,358 C429.2851563,510.6679688 396.59375,587 353,587" style="fill:none;stroke:rgb(85,142,213)" clip-path="url(#clip8)" />
<clipPath id="clip9"><path d="M15,15 L922,15 L922,616 L15,616 Z M365,272 C360.5820313,272 357,275.5820313 357,280 L357,350 C357,354.4179688 360.5820313,358 365,358 L574,358 C578.4179688,358 582,354.4179688 582,350 L582,280 C582,275.5820313 578.4179688,272 574,272 Z M365,272 Z M365,272" /></clipPath>
<path d="M434.0546875,358 C408.0429688,452.6679688 369.0234375,500 317,500" style="fill:none;stroke:rgb(85,142,213)" clip-path="url(#clip9)" />
<clipPath id="clip10"><path d="M15,15 L922,15 L922,616 L15,616 Z M365,272 C360.5820313,272 357,275.5820313 357,280 L357,350 C357,354.4179688 360.5820313,358 365,358 L574,358 C578.4179688,358 582,354.4179688 582,350 L582,280 C582,275.5820313 578.4179688,272 574,272 Z M365,272 Z M365,272" /></clipPath>
<path d="M393.4726563,358 C372.2578125,394 340.4335938,412 298,412" style="fill:none;stroke:rgb(85,142,213)" clip-path="url(#clip10)" />
<clipPath id="clip11"><path d="M15,15 L922,15 L922,616 L15,616 Z M365,272 C360.5820313,272 357,275.5820313 357,280 L357,350 C357,354.4179688 360.5820313,358 365,358 L574,358 C578.4179688,358 582,354.4179688 582,350 L582,280 C582,275.5820313 578.4179688,272 574,272 Z M365,272 Z M365,272" /></clipPath>
<path d="M357,315 C342.5546875,315 320.890625,315 292,315" style="fill:none;stroke:rgb(85,142,213)" clip-path="url(#clip11)" />
<clipPath id="clip12"><path d="M15,15 L922,15 L922,616 L15,616 Z M365,272 C360.5820313,272 357,275.5820313 357,280 L357,350 C357,354.4179688 360.5820313,358 365,358 L574,358 C578.4179688,358 582,354.4179688 582,350 L582,280 C582,275.5820313 578.4179688,272 574,272 Z M365,272 Z M365,272" /></clipPath>
<path d="M384.734375,272 C365.4609375,242.6679688 336.5507813,228 298,228" style="fill:none;stroke:rgb(85,142,213)" clip-path="url(#clip12)" />
<clipPath id="clip13"><path d="M15,15 L922,15 L922,616 L15,616 Z M365,272 C360.5820313,272 357,275.5820313 357,280 L357,350 C357,354.4179688 360.5820313,358 365,358 L574,358 C578.4179688,358 582,354.4179688 582,350 L582,280 C582,275.5820313 578.4179688,272 574,272 Z M365,272 Z M365,272" /></clipPath>
<path d="M431.78125,272 C406.0546875,184 367.4609375,140 316,140" style="fill:none;stroke:rgb(85,142,213)" clip-path="url(#clip13)" />
<clipPath id="clip14"><path d="M15,15 L922,15 L922,616 L15,616 Z M365,272 C360.5820313,272 357,275.5820313 357,280 L357,350 C357,354.4179688 360.5820313,358 365,358 L574,358 C578.4179688,358 582,354.4179688 582,350 L582,280 C582,275.5820313 578.4179688,272 574,272 Z M365,272 Z M365,272" /></clipPath>
<path d="M451.0820313,272 C429.2851563,119.3320313 396.59375,43 353,43" style="fill:none;stroke:rgb(85,142,213)" clip-path="url(#clip14)" />
<clipPath id="clip15"><path d="M353,268 L587,268 L587,363 L353,363 L353,268 Z" /></clipPath>
<path d="M365,272 C360.5820313,272 357,275.5820313 357,280 L357,350 C357,354.4179688 360.5820313,358 365,358 L574,358 C578.4179688,358 582,354.4179688 582,350 L582,280 C582,275.5820313 578.4179688,272 574,272 Z M365,272" style="fill:rgb(220,230,242);stroke:none" clip-path="url(#clip15)" />
<clipPath id="clip16"><path d="M353,268 L587,268 L587,363 L353,363 L353,268 Z" /></clipPath>
<path d="M365,272 C360.5820313,272 357,275.5820313 357,280 L357,350 C357,354.4179688 360.5820313,358 365,358 L574,358 C578.4179688,358 582,354.4179688 582,350 L582,280 C582,275.5820313 578.4179688,272 574,272 Z M365,272" style="fill:none;stroke:rgb(85,142,213);stroke-width:5" clip-path="url(#clip16)" />
<text x="392" y="311" style="font:18px Open Sans">RoboRTS</text>
<clipPath id="clip17"><path d="M587,20 L673,20 L673,79 L587,79 L587,20 Z" /></clipPath>
<path d="M594,22 C591.2382813,22 589,24.2382813 589,27 L589,71 C589,73.7617188 591.2382813,76 594,76 L665,76 C667.7617188,76 670,73.7617188 670,71 L670,27 C670,24.2382813 667.7617188,22 665,22 Z M594,22" style="fill:rgb(220,230,242);stroke:none" clip-path="url(#clip17)" />
<clipPath id="clip18"><path d="M587,20 L673,20 L673,79 L587,79 L587,20 Z" /></clipPath>
<path d="M594,22 C591.2382813,22 589,24.2382813 589,27 L589,71 C589,73.7617188 591.2382813,76 594,76 L665,76 C667.7617188,76 670,73.7617188 670,71 L670,27 C670,24.2382813 667.7617188,22 665,22 Z M594,22" style="fill:none;stroke:rgb(85,142,213);stroke-width:2" clip-path="url(#clip18)" />
<text x="603" y="46" style="font:13px Open Sans">uwb</text>
<clipPath id="clip19"><path d="M624,108 L922,108 L922,176 L624,176 Z M630,120 C627.2382813,120 625,122.2382813 625,125 L625,169 C625,171.7617188 627.2382813,174 630,174 L787,174 C789.7617188,174 792,171.7617188 792,169 L792,125 C792,122.2382813 789.7617188,120 787,120 Z M630,120 Z M630,120" /></clipPath>
<path d="M805,147 C807.2226563,147 810.5546875,147 815,147" style="fill:none;stroke:rgb(85,142,213)" clip-path="url(#clip19)" />
<clipPath id="clip20"><path d="M623,107 L923,107 L923,177 L623,177 L623,107 Z" /></clipPath>
<path d="M792,147 L805,147" style="fill:none;stroke:rgb(85,142,213)" clip-path="url(#clip20)" />
<clipPath id="clip21"><path d="M623,118 L795,118 L795,177 L623,177 L623,118 Z" /></clipPath>
<path d="M630,120 C627.2382813,120 625,122.2382813 625,125 L625,169 C625,171.7617188 627.2382813,174 630,174 L787,174 C789.7617188,174 792,171.7617188 792,169 L792,125 C792,122.2382813 789.7617188,120 787,120 Z M630,120" style="fill:rgb(220,230,242);stroke:none" clip-path="url(#clip21)" />
<clipPath id="clip22"><path d="M623,118 L795,118 L795,177 L623,177 L623,118 Z" /></clipPath>
<path d="M630,120 C627.2382813,120 625,122.2382813 625,125 L625,169 C625,171.7617188 627.2382813,174 630,174 L787,174 C789.7617188,174 792,171.7617188 792,169 L792,125 C792,122.2382813 789.7617188,120 787,120 Z M630,120" style="fill:none;stroke:rgb(85,142,213);stroke-width:2" clip-path="url(#clip22)" />
<text x="639" y="144" style="font:13px Open Sans">map server</text>
<clipPath id="clip23"><path d="M793,141 L806,141 L806,154 L793,154 L793,141 Z" /></clipPath>
<path d="M803.5,147 C803.5,144.515625 801.484375,142.5 799,142.5 C796.515625,142.5 794.5,144.515625 794.5,147 C794.5,149.484375 796.515625,151.5 799,151.5 C801.484375,151.5 803.5,149.484375 803.5,147 Z M803.5,147" style="fill:rgb(250,250,250);stroke:none" clip-path="url(#clip23)" />
<clipPath id="clip24"><path d="M793,141 L806,141 L806,154 L793,154 L793,141 Z" /></clipPath>
<path d="M803.5,147 C803.5,144.515625 801.484375,142.5 799,142.5 C796.515625,142.5 794.5,144.515625 794.5,147 C794.5,149.484375 796.515625,151.5 799,151.5 C801.484375,151.5 803.5,149.484375 803.5,147 Z M803.5,147" style="fill:none;stroke:rgb(85,142,213)" clip-path="url(#clip24)" />
<clipPath id="clip25"><path d="M793,141 L806,141 L806,154 L793,154 L793,141 Z" /></clipPath>
<path d="M797,147 L801,147" style="fill:none;stroke:rgb(150,160,200)" clip-path="url(#clip25)" />
<clipPath id="clip26"><path d="M812,107 L923,107 L923,150 L812,150 L812,107 Z" /></clipPath>
<path d="M815,147 L919,147 Z M815,147" style="fill:none;stroke:rgb(85,142,213);stroke-width:3" clip-path="url(#clip26)" />
<text x="826" y="126" style="font:10px Open Sans">costmap</text>
<clipPath id="clip27"><path d="M640,205 L756,205 L756,264 L640,264 L640,205 Z" /></clipPath>
<path d="M647,207 C644.2382813,207 642,209.2382813 642,212 L642,256 C642,258.7617188 644.2382813,261 647,261 L748,261 C750.7617188,261 753,258.7617188 753,256 L753,212 C753,209.2382813 750.7617188,207 748,207 Z M647,207" style="fill:rgb(220,230,242);stroke:none" clip-path="url(#clip27)" />
<clipPath id="clip28"><path d="M640,205 L756,205 L756,264 L640,264 L640,205 Z" /></clipPath>
<path d="M647,207 C644.2382813,207 642,209.2382813 642,212 L642,256 C642,258.7617188 644.2382813,261 647,261 L748,261 C750.7617188,261 753,258.7617188 753,256 L753,212 C753,209.2382813 750.7617188,207 748,207 Z M647,207" style="fill:none;stroke:rgb(85,142,213);stroke-width:2" clip-path="url(#clip28)" />
<text x="656" y="231" style="font:13px Open Sans">rqlidar</text>
<clipPath id="clip29"><path d="M644,292 L744,292 L744,351 L644,351 L644,292 Z" /></clipPath>
<path d="M651,294 C648.2382813,294 646,296.2382813 646,299 L646,343 C646,345.7617188 648.2382813,348 651,348 L736,348 C738.7617188,348 741,345.7617188 741,343 L741,299 C741,296.2382813 738.7617188,294 736,294 Z M651,294" style="fill:rgb(220,230,242);stroke:none" clip-path="url(#clip29)" />
<clipPath id="clip30"><path d="M644,292 L744,292 L744,351 L644,351 L644,292 Z" /></clipPath>
<path d="M651,294 C648.2382813,294 646,296.2382813 646,299 L646,343 C646,345.7617188 648.2382813,348 651,348 L736,348 C738.7617188,348 741,345.7617188 741,343 L741,299 C741,296.2382813 738.7617188,294 736,294 Z M651,294" style="fill:none;stroke:rgb(85,142,213);stroke-width:2" clip-path="url(#clip30)" />
<text x="660" y="318" style="font:13px Open Sans">serial</text>
<clipPath id="clip31"><path d="M639,379 L763,379 L763,438 L639,438 L639,379 Z" /></clipPath>
<path d="M646,381 C643.2382813,381 641,383.2382813 641,386 L641,430 C641,432.7617188 643.2382813,435 646,435 L755,435 C757.7617188,435 760,432.7617188 760,430 L760,386 C760,383.2382813 757.7617188,381 755,381 Z M646,381" style="fill:rgb(220,230,242);stroke:none" clip-path="url(#clip31)" />
<clipPath id="clip32"><path d="M639,379 L763,379 L763,438 L639,438 L639,379 Z" /></clipPath>
<path d="M646,381 C643.2382813,381 641,383.2382813 641,386 L641,430 C641,432.7617188 643.2382813,435 646,435 L755,435 C757.7617188,435 760,432.7617188 760,430 L760,386 C760,383.2382813 757.7617188,381 755,381 Z M646,381" style="fill:none;stroke:rgb(85,142,213);stroke-width:2" clip-path="url(#clip32)" />
<text x="655" y="404" style="font:13px Open Sans">camera</text>
<clipPath id="clip33"><path d="M621,466 L774,466 L774,525 L621,525 L621,466 Z" /></clipPath>
<path d="M628,468 C625.2382813,468 623,470.2382813 623,473 L623,517 C623,519.7617188 625.2382813,522 628,522 L766,522 C768.7617188,522 771,519.7617188 771,517 L771,473 C771,470.2382813 768.7617188,468 766,468 Z M628,468" style="fill:rgb(220,230,242);stroke:none" clip-path="url(#clip33)" />
<clipPath id="clip34"><path d="M621,466 L774,466 L774,525 L621,525 L621,466 Z" /></clipPath>
<path d="M628,468 C625.2382813,468 623,470.2382813 623,473 L623,517 C623,519.7617188 625.2382813,522 628,522 L766,522 C768.7617188,522 771,519.7617188 771,517 L771,473 C771,470.2382813 768.7617188,468 766,468 Z M628,468" style="fill:none;stroke:rgb(85,142,213);stroke-width:2" clip-path="url(#clip34)" />
<text x="637" y="491" style="font:13px Open Sans">self check</text>
<clipPath id="clip35"><path d="M587,553 L639,553 L639,612 L587,612 L587,553 Z" /></clipPath>
<path d="M594,555 C591.2382813,555 589,557.2382813 589,560 L589,604 C589,606.7617188 591.2382813,609 594,609 L631,609 C633.7617188,609 636,606.7617188 636,604 L636,560 C636,557.2382813 633.7617188,555 631,555 Z M594,555" style="fill:rgb(220,230,242);stroke:none" clip-path="url(#clip35)" />
<clipPath id="clip36"><path d="M587,553 L639,553 L639,612 L587,612 L587,553 Z" /></clipPath>
<path d="M594,555 C591.2382813,555 589,557.2382813 589,560 L589,604 C589,606.7617188 591.2382813,609 594,609 L631,609 C633.7617188,609 636,606.7617188 636,604 L636,560 C636,557.2382813 633.7617188,555 631,555 Z M594,555" style="fill:none;stroke:rgb(85,142,213);stroke-width:2" clip-path="url(#clip36)" />
<text x="603" y="578" style="font:13px Open Sans">tf</text>
<clipPath id="clip37"><path d="M246,558 L356,558 L356,617 L246,617 L246,558 Z" /></clipPath>
<path d="M253,560 C250.2382813,560 248,562.2382813 248,565 L248,609 C248,611.7617188 250.2382813,614 253,614 L348,614 C350.7617188,614 353,611.7617188 353,609 L353,565 C353,562.2382813 350.7617188,560 348,560 Z M253,560" style="fill:rgb(220,230,242);stroke:none" clip-path="url(#clip37)" />
<clipPath id="clip38"><path d="M246,558 L356,558 L356,617 L246,617 L246,558 Z" /></clipPath>
<path d="M253,560 C250.2382813,560 248,562.2382813 248,565 L248,609 C248,611.7617188 250.2382813,614 253,614 L348,614 C350.7617188,614 353,611.7617188 353,609 L353,565 C353,562.2382813 350.7617188,560 348,560 Z M253,560" style="fill:none;stroke:rgb(85,142,213);stroke-width:2" clip-path="url(#clip38)" />
<text x="263" y="583" style="font:13px Open Sans">armor</text>
<clipPath id="clip39"><path d="M224,471 L320,471 L320,530 L224,530 L224,471 Z" /></clipPath>
<path d="M231,473 C228.2382813,473 226,475.2382813 226,478 L226,522 C226,524.7617188 228.2382813,527 231,527 L312,527 C314.7617188,527 317,524.7617188 317,522 L317,478 C317,475.2382813 314.7617188,473 312,473 Z M231,473" style="fill:rgb(220,230,242);stroke:none" clip-path="url(#clip39)" />
<clipPath id="clip40"><path d="M224,471 L320,471 L320,530 L224,530 L224,471 Z" /></clipPath>
<path d="M231,473 C228.2382813,473 226,475.2382813 226,478 L226,522 C226,524.7617188 228.2382813,527 231,527 L312,527 C314.7617188,527 317,524.7617188 317,522 L317,478 C317,475.2382813 314.7617188,473 312,473 Z M231,473" style="fill:none;stroke:rgb(85,142,213);stroke-width:2" clip-path="url(#clip40)" />
<text x="241" y="496" style="font:13px Open Sans">color</text>
<clipPath id="clip41"><path d="M39,373 L300,373 L300,441 L39,441 Z M137,385 C134.2382813,385 132,387.2382813 132,390 L132,434 C132,436.7617188 134.2382813,439 137,439 L293,439 C295.7617188,439 298,436.7617188 298,434 L298,390 C298,387.2382813 295.7617188,385 293,385 Z M137,385 Z M137,385" /></clipPath>
<path d="M119,412 C116.7773438,412 113.4453125,412 109,412" style="fill:none;stroke:rgb(85,142,213)" clip-path="url(#clip41)" />
<clipPath id="clip42"><path d="M38,372 L301,372 L301,442 L38,442 L38,372 Z" /></clipPath>
<path d="M132,412 L119,412" style="fill:none;stroke:rgb(85,142,213)" clip-path="url(#clip42)" />
<clipPath id="clip43"><path d="M130,383 L301,383 L301,442 L130,442 L130,383 Z" /></clipPath>
<path d="M137,385 C134.2382813,385 132,387.2382813 132,390 L132,434 C132,436.7617188 134.2382813,439 137,439 L293,439 C295.7617188,439 298,436.7617188 298,434 L298,390 C298,387.2382813 295.7617188,385 293,385 Z M137,385" style="fill:rgb(220,230,242);stroke:none" clip-path="url(#clip43)" />
<clipPath id="clip44"><path d="M130,383 L301,383 L301,442 L130,442 L130,383 Z" /></clipPath>
<path d="M137,385 C134.2382813,385 132,387.2382813 132,390 L132,434 C132,436.7617188 134.2382813,439 137,439 L293,439 C295.7617188,439 298,436.7617188 298,434 L298,390 C298,387.2382813 295.7617188,385 293,385 Z M137,385" style="fill:none;stroke:rgb(85,142,213);stroke-width:2" clip-path="url(#clip44)" />
<text x="147" y="408" style="font:13px Open Sans">localization</text>
<clipPath id="clip45"><path d="M119,406 L132,406 L132,419 L119,419 L119,406 Z" /></clipPath>
<path d="M129.5,412 C129.5,409.515625 127.484375,407.5 125,407.5 C122.515625,407.5 120.5,409.515625 120.5,412 C120.5,414.484375 122.515625,416.5 125,416.5 C127.484375,416.5 129.5,414.484375 129.5,412 Z M129.5,412" style="fill:rgb(250,250,250);stroke:none" clip-path="url(#clip45)" />
<clipPath id="clip46"><path d="M119,406 L132,406 L132,419 L119,419 L119,406 Z" /></clipPath>
<path d="M129.5,412 C129.5,409.515625 127.484375,407.5 125,407.5 C122.515625,407.5 120.5,409.515625 120.5,412 C120.5,414.484375 122.515625,416.5 125,416.5 C127.484375,416.5 129.5,414.484375 129.5,412 Z M129.5,412" style="fill:none;stroke:rgb(85,142,213)" clip-path="url(#clip46)" />
<clipPath id="clip47"><path d="M119,406 L132,406 L132,419 L119,419 L119,406 Z" /></clipPath>
<path d="M123,412 L127,412" style="fill:none;stroke:rgb(150,160,200)" clip-path="url(#clip47)" />
<clipPath id="clip48"><path d="M38,372 L113,372 L113,415 L38,415 L38,372 Z" /></clipPath>
<path d="M41,412 L109,412 Z M41,412" style="fill:none;stroke:rgb(85,142,213);stroke-width:3" clip-path="url(#clip48)" />
<text x="53" y="390" style="font:10px Open Sans">amcl</text>
<clipPath id="clip49"><path d="M85,286 L295,286 L295,345 L85,345 L85,286 Z" /></clipPath>
<path d="M92,288 C89.2382813,288 87,290.2382813 87,293 L87,337 C87,339.7617188 89.2382813,342 92,342 L287,342 C289.7617188,342 292,339.7617188 292,337 L292,293 C292,290.2382813 289.7617188,288 287,288 Z M92,288" style="fill:rgb(220,230,242);stroke:none" clip-path="url(#clip49)" />
<clipPath id="clip50"><path d="M85,286 L295,286 L295,345 L85,345 L85,286 Z" /></clipPath>
<path d="M92,288 C89.2382813,288 87,290.2382813 87,293 L87,337 C87,339.7617188 89.2382813,342 92,342 L287,342 C289.7617188,342 292,339.7617188 292,337 L292,293 C292,290.2382813 289.7617188,288 287,288 Z M92,288" style="fill:none;stroke:rgb(85,142,213);stroke-width:2" clip-path="url(#clip50)" />
<text x="102" y="312" style="font:13px Open Sans">global planner</text>
<clipPath id="clip51"><path d="M109,199 L301,199 L301,258 L109,258 L109,199 Z" /></clipPath>
<path d="M116,201 C113.2382813,201 111,203.2382813 111,206 L111,250 C111,252.7617188 113.2382813,255 116,255 L293,255 C295.7617188,255 298,252.7617188 298,250 L298,206 C298,203.2382813 295.7617188,201 293,201 Z M116,201" style="fill:rgb(220,230,242);stroke:none" clip-path="url(#clip51)" />
<clipPath id="clip52"><path d="M109,199 L301,199 L301,258 L109,258 L109,199 Z" /></clipPath>
<path d="M116,201 C113.2382813,201 111,203.2382813 111,206 L111,250 C111,252.7617188 113.2382813,255 116,255 L293,255 C295.7617188,255 298,252.7617188 298,250 L298,206 C298,203.2382813 295.7617188,201 293,201 Z M116,201" style="fill:none;stroke:rgb(85,142,213);stroke-width:2" clip-path="url(#clip52)" />
<text x="126" y="225" style="font:13px Open Sans">local planner</text>
<clipPath id="clip53"><path d="M15,101 L318,101 L318,169 L15,169 Z M191,113 C188.2382813,113 186,115.2382813 186,118 L186,162 C186,164.7617188 188.2382813,167 191,167 L311,167 C313.7617188,167 316,164.7617188 316,162 L316,118 C316,115.2382813 313.7617188,113 311,113 Z M191,113 Z M191,113" /></clipPath>
<path d="M173,140 C170.7773438,140 167.4453125,140 163,140" style="fill:none;stroke:rgb(85,142,213)" clip-path="url(#clip53)" />
<clipPath id="clip54"><path d="M14,100 L319,100 L319,170 L14,170 L14,100 Z" /></clipPath>
<path d="M186,140 L173,140" style="fill:none;stroke:rgb(85,142,213)" clip-path="url(#clip54)" />
<clipPath id="clip55"><path d="M184,111 L319,111 L319,170 L184,170 L184,111 Z" /></clipPath>
<path d="M191,113 C188.2382813,113 186,115.2382813 186,118 L186,162 C186,164.7617188 188.2382813,167 191,167 L311,167 C313.7617188,167 316,164.7617188 316,162 L316,118 C316,115.2382813 313.7617188,113 311,113 Z M191,113" style="fill:rgb(220,230,242);stroke:none" clip-path="url(#clip55)" />
<clipPath id="clip56"><path d="M184,111 L319,111 L319,170 L184,170 L184,111 Z" /></clipPath>
<path d="M191,113 C188.2382813,113 186,115.2382813 186,118 L186,162 C186,164.7617188 188.2382813,167 191,167 L311,167 C313.7617188,167 316,164.7617188 316,162 L316,118 C316,115.2382813 313.7617188,113 311,113 Z M191,113" style="fill:none;stroke:rgb(85,142,213);stroke-width:2" clip-path="url(#clip56)" />
<text x="201" y="137" style="font:13px Open Sans">decision</text>
<clipPath id="clip57"><path d="M173,134 L186,134 L186,147 L173,147 L173,134 Z" /></clipPath>
<path d="M183.5,140 C183.5,137.515625 181.484375,135.5 179,135.5 C176.515625,135.5 174.5,137.515625 174.5,140 C174.5,142.484375 176.515625,144.5 179,144.5 C181.484375,144.5 183.5,142.484375 183.5,140 Z M183.5,140" style="fill:rgb(250,250,250);stroke:none" clip-path="url(#clip57)" />
<clipPath id="clip58"><path d="M173,134 L186,134 L186,147 L173,147 L173,134 Z" /></clipPath>
<path d="M183.5,140 C183.5,137.515625 181.484375,135.5 179,135.5 C176.515625,135.5 174.5,137.515625 174.5,140 C174.5,142.484375 176.515625,144.5 179,144.5 C181.484375,144.5 183.5,142.484375 183.5,140 Z M183.5,140" style="fill:none;stroke:rgb(85,142,213)" clip-path="url(#clip58)" />
<clipPath id="clip59"><path d="M173,134 L186,134 L186,147 L173,147 L173,134 Z" /></clipPath>
<path d="M177,140 L181,140" style="fill:none;stroke:rgb(150,160,200)" clip-path="url(#clip59)" />
<clipPath id="clip60"><path d="M14,100 L167,100 L167,143 L14,143 L14,100 Z" /></clipPath>
<path d="M17,140 L163,140 Z M17,140" style="fill:none;stroke:rgb(85,142,213);stroke-width:3" clip-path="url(#clip60)" />
<text x="29" y="119" style="font:10px Open Sans">behavior tree</text>
<clipPath id="clip61"><path d="M265,14 L356,14 L356,73 L265,73 L265,14 Z" /></clipPath>
<path d="M272,16 C269.2382813,16 267,18.2382813 267,21 L267,65 C267,67.7617188 269.2382813,70 272,70 L348,70 C350.7617188,70 353,67.7617188 353,65 L353,21 C353,18.2382813 350.7617188,16 348,16 Z M272,16" style="fill:rgb(220,230,242);stroke:none" clip-path="url(#clip61)" />
<clipPath id="clip62"><path d="M265,14 L356,14 L356,73 L265,73 L265,14 Z" /></clipPath>
<path d="M272,16 C269.2382813,16 267,18.2382813 267,21 L267,65 C267,67.7617188 269.2382813,70 272,70 L348,70 C350.7617188,70 353,67.7617188 353,65 L353,21 C353,18.2382813 350.7617188,16 348,16 Z M272,16" style="fill:none;stroke:rgb(85,142,213);stroke-width:2" clip-path="url(#clip62)" />
<text x="282" y="40" style="font:13px Open Sans">slam</text>
</svg>
